<mxfile host="app.diagrams.net" agent="Mozilla/5.0 (Windows NT 10.0; Win64; x64) AppleWebKit/537.36 (KHTML, like Gecko) Chrome/130.0.0.0 Safari/537.36 OPR/115.0.0.0" version="25.0.3">
  <diagram id="C5RBs43oDa-KdzZeNtuy" name="Page-1">
    <mxGraphModel dx="878" dy="434" grid="1" gridSize="10" guides="1" tooltips="1" connect="1" arrows="1" fold="1" page="1" pageScale="1" pageWidth="827" pageHeight="1169" math="0" shadow="0">
      <root>
        <mxCell id="WIyWlLk6GJQsqaUBKTNV-0" />
        <mxCell id="WIyWlLk6GJQsqaUBKTNV-1" parent="WIyWlLk6GJQsqaUBKTNV-0" />
        <mxCell id="0Xtb-bX71uuHagESJAE9-0" value="CLIENTES&#xa;ID_CLIENTE&#xa;NOME" style="shape=rectangle;whiteSpace=wrap;fillColor=#DAE8FC;strokeColor=#6C8EBF;fontSize=12" vertex="1" parent="WIyWlLk6GJQsqaUBKTNV-1">
          <mxGeometry x="50" y="50" width="160" height="120" as="geometry" />
        </mxCell>
        <mxCell id="0Xtb-bX71uuHagESJAE9-1" value="CLIENTE PF&#xa;CPF&#xa;DATA_NASCIMENTO" style="shape=rectangle;whiteSpace=wrap;fillColor=#CDEB8B;strokeColor=#82B366;fontSize=12" vertex="1" parent="WIyWlLk6GJQsqaUBKTNV-1">
          <mxGeometry x="250" y="50" width="160" height="80" as="geometry" />
        </mxCell>
        <mxCell id="0Xtb-bX71uuHagESJAE9-2" value="CLIENTE PJ&#xa;CNPJ&#xa;RAZAO_SOCIAL" style="shape=rectangle;whiteSpace=wrap;fillColor=#CDEB8B;strokeColor=#82B366;fontSize=12" vertex="1" parent="WIyWlLk6GJQsqaUBKTNV-1">
          <mxGeometry x="450" y="50" width="160" height="80" as="geometry" />
        </mxCell>
        <mxCell id="0Xtb-bX71uuHagESJAE9-3" value="PEDIDOS&#xa;ID_PEDIDO&#xa;ID_CLIENTE&#xa;VALOR" style="shape=rectangle;whiteSpace=wrap;fillColor=#FFCC99;strokeColor=#D79B00;fontSize=12" vertex="1" parent="WIyWlLk6GJQsqaUBKTNV-1">
          <mxGeometry x="300" y="200" width="160" height="120" as="geometry" />
        </mxCell>
        <mxCell id="0Xtb-bX71uuHagESJAE9-4" value="FORMAS PAGAMENTO&#xa;ID_FORMA&#xa;DESCRIÇÃO" style="shape=rectangle;whiteSpace=wrap;fillColor=#FFE6CC;strokeColor=#D79B00;fontSize=12" vertex="1" parent="WIyWlLk6GJQsqaUBKTNV-1">
          <mxGeometry x="50" y="400" width="160" height="120" as="geometry" />
        </mxCell>
        <mxCell id="0Xtb-bX71uuHagESJAE9-5" value="ENTREGA&#xa;STATUS&#xa;CODIGO_RASTREIO" style="shape=rectangle;whiteSpace=wrap;fillColor=#E1D5E7;strokeColor=#9673A6;fontSize=12" vertex="1" parent="WIyWlLk6GJQsqaUBKTNV-1">
          <mxGeometry x="550" y="200" width="160" height="100" as="geometry" />
        </mxCell>
        <mxCell id="0Xtb-bX71uuHagESJAE9-6" value="PRODUTOS&#xa;ID_PRODUTO&#xa;NOME_PRODUTO" style="shape=rectangle;whiteSpace=wrap;fillColor=#D5E8D4;strokeColor=#82B366;fontSize=12" vertex="1" parent="WIyWlLk6GJQsqaUBKTNV-1">
          <mxGeometry x="550" y="400" width="160" height="120" as="geometry" />
        </mxCell>
        <mxCell id="0Xtb-bX71uuHagESJAE9-7" style="edgeStyle=elbowEdgeStyle;elbow=horizontal;orthogonalLoop=1;rounded=0;jettySize=auto;html=1;" edge="1" parent="WIyWlLk6GJQsqaUBKTNV-1" source="0Xtb-bX71uuHagESJAE9-0" target="0Xtb-bX71uuHagESJAE9-3">
          <mxGeometry relative="1" as="geometry" />
        </mxCell>
        <mxCell id="0Xtb-bX71uuHagESJAE9-8" style="edgeStyle=elbowEdgeStyle;elbow=horizontal;orthogonalLoop=1;rounded=0;jettySize=auto;html=1;" edge="1" parent="WIyWlLk6GJQsqaUBKTNV-1" source="0Xtb-bX71uuHagESJAE9-3" target="0Xtb-bX71uuHagESJAE9-4">
          <mxGeometry relative="1" as="geometry" />
        </mxCell>
        <mxCell id="0Xtb-bX71uuHagESJAE9-9" style="edgeStyle=elbowEdgeStyle;elbow=horizontal;orthogonalLoop=1;rounded=0;jettySize=auto;html=1;" edge="1" parent="WIyWlLk6GJQsqaUBKTNV-1" source="0Xtb-bX71uuHagESJAE9-3" target="0Xtb-bX71uuHagESJAE9-5">
          <mxGeometry relative="1" as="geometry" />
        </mxCell>
        <mxCell id="0Xtb-bX71uuHagESJAE9-10" style="edgeStyle=elbowEdgeStyle;elbow=horizontal;orthogonalLoop=1;rounded=0;jettySize=auto;html=1;" edge="1" parent="WIyWlLk6GJQsqaUBKTNV-1" source="0Xtb-bX71uuHagESJAE9-3" target="0Xtb-bX71uuHagESJAE9-6">
          <mxGeometry relative="1" as="geometry" />
        </mxCell>
        <mxCell id="0Xtb-bX71uuHagESJAE9-11" style="edgeStyle=elbowEdgeStyle;elbow=horizontal;orthogonalLoop=1;rounded=0;jettySize=auto;html=1;" edge="1" parent="WIyWlLk6GJQsqaUBKTNV-1" source="0Xtb-bX71uuHagESJAE9-0" target="0Xtb-bX71uuHagESJAE9-1">
          <mxGeometry relative="1" as="geometry" />
        </mxCell>
        <mxCell id="0Xtb-bX71uuHagESJAE9-12" style="edgeStyle=elbowEdgeStyle;elbow=horizontal;orthogonalLoop=1;rounded=0;jettySize=auto;html=1;" edge="1" parent="WIyWlLk6GJQsqaUBKTNV-1" source="0Xtb-bX71uuHagESJAE9-0" target="0Xtb-bX71uuHagESJAE9-2">
          <mxGeometry relative="1" as="geometry" />
        </mxCell>
      </root>
    </mxGraphModel>
  </diagram>
</mxfile>
